<?xml version="1.0" encoding="UTF-8"?>
<svg xmlns="http://www.w3.org/2000/svg" width="1200" height="2600" viewBox="0 0 1200 2600">
  <defs>
    <linearGradient id="g0" x1="0" y1="0" x2="0" y2="1">
      <stop offset="0" stop-color="#050615"/>
      <stop offset="0.55" stop-color="#07122a"/>
      <stop offset="1" stop-color="#0b1730"/>
    </linearGradient>

    <radialGradient id="glowC" cx="25%" cy="10%" r="60%">
      <stop offset="0" stop-color="#22d3ee" stop-opacity="0.22"/>
      <stop offset="0.55" stop-color="#22d3ee" stop-opacity="0.08"/>
      <stop offset="1" stop-color="#22d3ee" stop-opacity="0"/>
    </radialGradient>

    <radialGradient id="glowB" cx="80%" cy="55%" r="55%">
      <stop offset="0" stop-color="#60a5fa" stop-opacity="0.14"/>
      <stop offset="0.6" stop-color="#60a5fa" stop-opacity="0.06"/>
      <stop offset="1" stop-color="#60a5fa" stop-opacity="0"/>
    </radialGradient>

    <pattern id="grain" width="120" height="120" patternUnits="userSpaceOnUse">
      <circle cx="18" cy="22" r="1" fill="#ffffff" opacity="0.06"/>
      <circle cx="48" cy="36" r="1" fill="#ffffff" opacity="0.05"/>
      <circle cx="92" cy="28" r="1" fill="#ffffff" opacity="0.06"/>
      <circle cx="76" cy="68" r="1" fill="#ffffff" opacity="0.05"/>
      <circle cx="26" cy="84" r="1" fill="#ffffff" opacity="0.06"/>
      <circle cx="62" cy="98" r="1" fill="#ffffff" opacity="0.05"/>
      <circle cx="104" cy="92" r="1" fill="#ffffff" opacity="0.06"/>
      <circle cx="10" cy="108" r="1" fill="#ffffff" opacity="0.05"/>
    </pattern>
  </defs>

  <rect x="0" y="0" width="1200" height="2600" fill="url(#g0)"/>
  <rect x="0" y="0" width="1200" height="2600" fill="url(#glowC)"/>
  <rect x="0" y="0" width="1200" height="2600" fill="url(#glowB)"/>

  <!-- Soft diagonal ribbons -->
  <path d="M-120,420 C260,240 520,360 860,220 C1040,150 1180,120 1320,80 L1320,360 C1140,420 960,520 760,600 C460,720 200,680 -120,820 Z"
        fill="#22d3ee" opacity="0.05"/>
  <path d="M-180,1440 C160,1240 520,1400 820,1260 C1060,1148 1220,1110 1380,1060 L1380,1340 C1220,1400 1040,1500 820,1580 C520,1700 200,1660 -180,1820 Z"
        fill="#60a5fa" opacity="0.05"/>
  <path d="M-160,2200 C220,2020 520,2140 840,1980 C1080,1860 1240,1820 1380,1760 L1380,2060 C1200,2140 980,2260 740,2360 C460,2480 180,2460 -160,2560 Z"
        fill="#22c55e" opacity="0.03"/>

  <!-- Grain -->
  <rect x="0" y="0" width="1200" height="2600" fill="url(#grain)" opacity="0.55"/>
</svg>

